<svg width="326" height="606" viewBox="0 0 326 606" fill="none" xmlns="http://www.w3.org/2000/svg">
<path fill-rule="evenodd" clip-rule="evenodd" d="M190.484 83.6969C195.193 74.4278 197.281 64.0543 193.769 53.9968C183.652 25.018 141.994 43.1397 137.554 60.3211C133.113 77.5026 144.269 115.084 155.895 114.83C160.532 114.729 169.103 109.642 177.091 101.724L181.825 143.035L216.791 133.675L190.484 83.6969Z" fill="#D4A181"/>
<path fill-rule="evenodd" clip-rule="evenodd" d="M177.339 84.8239C183.754 91.5493 191.286 95.8978 197.21 94.3267C208.461 91.3427 212.57 74.8484 208.387 59.3955C208.24 58.8526 208.082 58.3163 207.915 57.7869C221.929 62.4337 235.265 75.3826 251.013 71.2059C272.438 65.5235 269.769 21.9773 239.836 29.9163C219.479 35.3155 210.233 40.8072 202.739 47.2896C199.796 43.1563 196.157 39.9901 192.255 38.14C191.269 37.5213 189.886 37.0461 188.179 36.7183C187.125 36.4805 186.063 36.3408 185.001 36.3054C179.302 35.8584 171.415 36.5688 162.918 38.5212C161.332 38.8857 159.783 39.2799 158.282 39.6988C156.205 32.1241 148.104 27.6936 140.164 29.7995C132.208 31.9095 127.427 39.782 129.485 47.3832C131.475 54.7342 139.132 59.1395 146.829 57.513C151.519 57.6415 157.354 57.1017 163.65 55.8567C163.634 58.1751 163.971 60.7143 164.721 63.4859C165.384 65.9332 166.369 68.4537 167.603 70.951C168.533 69.0706 170.058 67.5999 171.88 67.1168C176.975 65.7652 181.607 68.8298 182.758 73.0824C184.219 78.4796 182.015 83.249 177.339 84.8239Z" fill="#191847"/>
<path fill-rule="evenodd" clip-rule="evenodd" d="M260.672 261.734L206.313 443.557L180.745 580.072H155.083L180.699 261.734H260.672Z" fill="#BA8B72"/>
<path fill-rule="evenodd" clip-rule="evenodd" d="M285.101 261.734C281.308 356.19 282.804 407.709 283.653 416.291C284.502 424.872 289.321 482.347 322.161 582.953H295.47C251.979 486.439 236.796 428.964 231.808 416.291C226.82 403.617 212.087 352.098 190.579 261.734H285.101Z" fill="#D4A181"/>
<path fill-rule="evenodd" clip-rule="evenodd" d="M261.839 261.734C247.699 324.3 223.243 424.171 188.472 561.346H150.938C148.166 420.549 159.959 327.88 180.382 261.734H261.839Z" fill="#69A1AC"/>
<path fill-rule="evenodd" clip-rule="evenodd" d="M285.291 261.734C281.576 356.19 291.203 449.247 321.024 562.817H280.977C237.405 467.743 206.176 375.145 184.833 261.734H285.291Z" fill="#89C5CC"/>
<path fill-rule="evenodd" clip-rule="evenodd" d="M325.966 601.679L324.493 578.632C315.871 581.079 305.071 580.119 292.093 575.751C278.14 585.345 260.574 591.896 239.396 595.404C237.78 595.672 236.693 597.16 236.969 598.729C236.987 598.83 237.01 598.931 237.039 599.03L239.075 606H292.093H323.021L325.966 601.679Z" fill="#191847"/>
<path fill-rule="evenodd" clip-rule="evenodd" d="M186.473 601.679L185.001 578.632C176.378 581.079 165.578 580.119 152.601 575.751C138.647 585.345 121.081 591.896 99.9029 595.404C98.2871 595.672 97.2007 597.16 97.4765 598.729C97.4943 598.83 97.5178 598.931 97.5468 599.03L99.5828 606H152.601H183.528L186.473 601.679Z" fill="#191847"/>
<path fill-rule="evenodd" clip-rule="evenodd" d="M154.764 180.357L99.0991 162.554C88.9228 154.397 79.2525 148.372 70.088 144.479C67.3982 143.915 62.8979 144.078 68.2431 150.349C73.5882 156.62 78.9139 163.45 77.2022 165.972C75.4906 168.494 69.7396 166.402 67.8762 170.42C66.634 173.098 76.2164 175.301 96.6237 177.028L139.381 203.023L154.764 180.357ZM78.99 216.946L54.5325 209.09C49.3665 198.186 44.5943 193.082 40.2158 193.777C36.5973 192.87 44.999 206.319 38.4192 206.181C31.8394 206.043 14.3636 197.701 12.0875 200.418C8.72022 204.438 14.0536 214.027 19.1079 218.375C28.5543 226.502 35.5593 228.617 52.2059 230.075C60.9096 230.837 70.6829 233.712 81.5257 238.701L78.99 216.946Z" fill="#D4A181"/>
<path fill-rule="evenodd" clip-rule="evenodd" d="M178.308 170.463C160.429 173.403 135.99 173.966 107.862 163.029L101.663 185.985C122.129 199.505 149.181 208.824 170.613 204.484C187.503 201.063 192.694 179.967 178.308 170.463Z" fill="#2026A2"/>
<path fill-rule="evenodd" clip-rule="evenodd" d="M160.501 209.189C142.341 217.06 109.596 217.3 62.2655 209.906C55.0809 233.831 52.7339 250.399 55.2244 259.612C96.9089 272.072 131.24 274.86 158.378 270.671C160.241 286.216 164.784 300.521 173.711 312.752C192.063 337.897 266.525 298.531 293.963 298.879C301.427 244.141 265.554 228.735 259.665 195.586C253.216 159.283 212.95 108.739 208.48 109.525L167.715 116.692C170.37 144.816 164.453 177.365 160.501 209.189Z" fill="#1F28CF"/>
</svg>
