<svg width="648" height="329" viewBox="0 0 648 329" fill="none" xmlns="http://www.w3.org/2000/svg">
<g clip-path="url(#clip0_127_653)">
<path d="M95.1441 119.074C95.1517 123.441 94.2788 127.765 92.5773 131.787L87.3914 140.197L62.877 179.969L59.3235 185.735C58.6597 186.728 58.0375 187.745 57.4443 188.779L57.2623 189.073L57.309 189.026C52.7887 196.977 50.1748 205.87 49.674 215.004C49.6035 216.133 49.5744 217.267 49.5744 218.413C49.5468 230.607 53.2818 242.512 60.2693 252.501L41.0405 229.021L36.2539 223.179L10.0832 191.218L5.10278 185.141C2.39825 180.87 0.719264 176.03 0.197541 171.001C-0.324183 165.972 0.325541 160.89 2.09573 156.154L8.65606 145.51L28.3076 113.626L31.8667 107.86L38.7206 96.7342C38.5268 96.9402 38.333 97.1514 38.1333 97.3689C43.5317 87.8908 46.2066 77.1039 45.8625 66.1997C45.5184 55.2955 42.1687 44.6989 36.1834 35.5806H36.3361L38.4798 38.2019V38.2371L52.9631 55.9163L59.171 63.4981L87.6792 98.2681C87.6792 98.2681 87.7321 98.333 87.7611 98.3683C92.553 104.203 95.1688 111.522 95.1617 119.074H95.1441Z" fill="#3A73BA"/>
<path d="M123.882 149.361C123.882 151.717 123.452 154.053 122.613 156.254L120.358 159.916L118.807 162.455L96.3542 198.895L86.8338 214.341C78.4141 232.441 77.1 253.048 83.1516 272.073C83.7506 273.958 84.4219 275.813 85.1662 277.639C85.949 279.622 86.8281 281.563 87.8029 283.464C89.5359 286.925 91.5266 290.251 93.7584 293.414L80.8374 277.633H81.1548C80.5144 276.999 79.8859 276.364 79.2636 275.711L72.057 266.942C71.1055 265.591 70.1955 264.206 69.3259 262.787C62.7277 251.959 58.8817 239.678 58.1241 227.018C57.3665 214.358 59.7203 201.706 64.98 190.167L74.9645 173.992L79.3809 166.834L86.1644 155.831L95.4027 140.844V140.815L98.0752 136.483L101.693 130.606L101.993 130.118H101.869C103.408 125.82 103.379 121.114 101.787 116.835L102.239 116.094L107.061 121.931L118.625 136.037L120.317 138.099V138.129C122.635 141.408 123.878 145.326 123.876 149.343L123.882 149.361Z" fill="#3A73BA"/>
<path d="M36.3316 35.5875C36.4138 35.5405 43.6319 47.5303 49.2937 57.8215C62.0031 80.9197 68.3578 92.4976 70.2899 102.536C76.9147 137.124 33.2893 150.037 33.1014 191.073C32.9369 224.573 61.4628 254.001 60.2468 252.514C59.4955 251.598 39.6029 227.307 38.8746 226.425C22.1186 205.96 22.1479 205.989 22.1244 205.96C17.2321 200.67 13.7023 196.115 6.63109 187.047C5.14884 185.204 3.88731 183.194 2.8723 181.058C0.891796 176.675 -0.0873552 171.906 0.00611475 167.097C0.0995843 162.288 1.26331 157.56 3.41262 153.258C4.58724 150.948 5.00423 150.971 8.26972 146.111C11.2063 141.744 12.9682 138.606 14.6891 135.702C18.3245 129.478 17.8958 130.606 28.1973 113.821C39.5383 95.3013 40.5309 93.1857 41.5234 90.4702C44.6515 82.7974 46.137 74.5533 45.8841 66.2701C45.6312 57.987 43.6455 49.8492 40.0551 42.3818C38.258 38.6555 36.2963 35.6052 36.3316 35.5875Z" fill="url(#paint0_linear_127_653)"/>
<path d="M102.258 116.089C104.743 118.746 109.552 124.681 110.763 133.339C110.991 134.973 111.644 140.627 108.466 149.954C104.731 160.91 100.144 163.913 91.6691 176.99C86.711 184.625 82.3894 192.655 78.7482 200.999C74.0025 212.001 70.602 219.642 69.8677 230.386C68.758 246.654 73.932 260.007 76.4163 265.497C78.8478 270.869 83.1999 278.251 87.9393 285.304C90.2416 288.73 92.28 291.498 93.7303 293.42C93.6308 293.291 90.7295 289.753 90.6237 289.623L83.1879 280.549L79.2237 275.712C72.2758 267.225 72.1762 267.096 71.624 266.308C69.3889 263.09 67.4134 259.7 65.7158 256.169C64.4002 253.466 63.4721 251.144 62.867 249.516C61.2365 245.148 60.0038 240.642 59.1848 236.051C57.2694 225.215 57.6577 214.097 60.324 203.42C61.4137 198.853 62.9746 194.411 64.9815 190.167C66.156 187.64 65.9683 188.569 74.4666 174.78L82.1426 162.332C82.1426 162.332 83.8164 159.622 83.8226 159.605L86.2598 155.655C86.4889 155.291 91.3928 147.333 91.8102 146.657L95.4218 140.78L97.6536 137.165C100.003 133.386 99.8973 133.515 99.9735 133.398C100.297 132.904 100.561 132.493 101.037 131.676C101.362 131.177 101.647 130.652 101.888 130.107C102.087 129.612 102.245 129.103 102.364 128.584C102.364 128.584 102.622 127.603 102.775 126.674C102.981 125.422 102.951 121.426 102.258 116.089Z" fill="url(#paint1_linear_127_653)"/>
<path d="M167.062 147.812V41.0059H219.206C232.624 41.0059 242.687 43.5488 249.396 48.6348C256.206 53.721 259.611 60.4345 259.611 68.7754C259.611 74.3698 258.239 79.2523 255.494 83.423C252.75 87.4917 248.989 90.6453 244.212 92.883C239.434 95.1206 233.945 96.2397 227.745 96.2397L230.641 89.9839C237.35 89.9839 243.297 91.103 248.481 93.3407C253.665 95.4768 257.68 98.681 260.526 102.953C263.473 107.225 264.948 112.464 264.948 118.669C264.948 127.824 261.339 134.995 254.122 140.183C246.905 145.269 236.283 147.812 222.256 147.812H167.062ZM191.609 129.197H220.426C226.83 129.197 231.658 128.18 234.91 126.145C238.265 124.009 239.942 120.652 239.942 116.075C239.942 111.599 238.265 108.294 234.91 106.157C231.658 103.92 226.83 102.801 220.426 102.801H189.78V84.7962H216.157C222.154 84.7962 226.728 83.7792 229.879 81.7446C233.132 79.6085 234.758 76.4044 234.758 72.1321C234.758 67.9614 233.132 64.8593 229.879 62.8248C226.728 60.6886 222.154 59.6206 216.157 59.6206H191.609V129.197ZM283.648 147.812V41.0059H335.793C349.21 41.0059 359.273 43.5488 365.982 48.6348C372.792 53.721 376.197 60.4345 376.197 68.7754C376.197 74.3698 374.825 79.2523 372.081 83.423C369.336 87.4917 365.575 90.6453 360.798 92.883C356.02 95.1206 350.531 96.2397 344.331 96.2397L347.228 89.9839C353.937 89.9839 359.883 91.103 365.067 93.3407C370.251 95.4768 374.266 98.681 377.112 102.953C380.06 107.225 381.534 112.464 381.534 118.669C381.534 127.824 377.925 134.995 370.708 140.183C363.491 145.269 352.869 147.812 338.842 147.812H283.648ZM308.195 129.197H337.012C343.416 129.197 348.244 128.18 351.497 126.145C354.851 124.009 356.529 120.652 356.529 116.075C356.529 111.599 354.851 108.294 351.497 106.157C348.244 103.92 343.416 102.801 337.012 102.801H306.366V84.7962H332.743C338.741 84.7962 343.315 83.7792 346.466 81.7446C349.718 79.6085 351.345 76.4044 351.345 72.1321C351.345 67.9614 349.718 64.8593 346.466 62.8248C343.315 60.6886 338.741 59.6206 332.743 59.6206H308.195V129.197ZM400.234 147.812V41.0059H420.665L466.102 116.38H455.276L499.951 41.0059H520.23L520.535 147.812H497.359L497.207 76.5569H501.476L465.797 136.521H454.666L418.226 76.5569H423.41V147.812H400.234ZM567.962 123.399L566.59 94.8665L617.668 41.0059H645.113L599.066 90.5943L585.344 105.242L567.962 123.399ZM545.854 147.812V41.0059H570.402V147.812H545.854ZM618.888 147.812L580.922 101.275L597.084 83.7282L647.705 147.812H618.888Z" fill="white"/>
<path d="M159.363 290.855V274.834L200.53 235.926C203.783 232.976 206.172 230.332 207.696 227.992C209.221 225.652 210.238 223.516 210.746 221.584C211.356 219.651 211.661 217.871 211.661 216.244C211.661 211.971 210.187 208.716 207.239 206.478C204.393 204.139 200.175 202.969 194.584 202.969C190.112 202.969 185.944 203.834 182.081 205.563C178.321 207.292 175.119 209.988 172.476 213.65L154.484 202.054C158.55 195.95 164.242 191.119 171.561 187.559C178.879 183.998 187.316 182.218 196.871 182.218C204.799 182.218 211.712 183.54 217.607 186.185C223.604 188.728 228.229 192.34 231.482 197.018C234.836 201.697 236.513 207.292 236.513 213.802C236.513 217.261 236.056 220.719 235.141 224.178C234.328 227.534 232.6 231.095 229.957 234.858C227.416 238.622 223.655 242.843 218.674 247.522L184.521 279.717L179.794 270.715H240.02V290.855H159.363ZM295.953 292.686C287.212 292.686 279.385 290.55 272.473 286.278C265.561 281.904 260.122 275.597 256.158 267.358C252.194 259.118 250.212 249.15 250.212 237.452C250.212 225.754 252.194 215.786 256.158 207.546C260.122 199.307 265.561 193.051 272.473 188.779C279.385 184.405 287.212 182.218 295.953 182.218C304.796 182.218 312.623 184.405 319.434 188.779C326.346 193.051 331.784 199.307 335.748 207.546C339.712 215.786 341.694 225.754 341.694 237.452C341.694 249.15 339.712 259.118 335.748 267.358C331.784 275.597 326.346 281.904 319.434 286.278C312.623 290.55 304.796 292.686 295.953 292.686ZM295.953 271.783C300.121 271.783 303.729 270.613 306.778 268.273C309.93 265.934 312.369 262.221 314.097 257.135C315.927 252.049 316.841 245.488 316.841 237.452C316.841 229.416 315.927 222.855 314.097 217.769C312.369 212.683 309.93 208.971 306.778 206.631C303.729 204.291 300.121 203.122 295.953 203.122C291.887 203.122 288.279 204.291 285.128 206.631C282.078 208.971 279.639 212.683 277.809 217.769C276.081 222.855 275.217 229.416 275.217 237.452C275.217 245.488 276.081 252.049 277.809 257.135C279.639 262.221 282.078 265.934 285.128 268.273C288.279 270.613 291.887 271.783 295.953 271.783ZM352.185 290.855V274.834L393.352 235.926C396.605 232.976 398.994 230.332 400.518 227.992C402.043 225.652 403.059 223.516 403.568 221.584C404.178 219.651 404.483 217.871 404.483 216.244C404.483 211.971 403.008 208.716 400.061 206.478C397.214 204.139 392.996 202.969 387.406 202.969C382.933 202.969 378.766 203.834 374.903 205.563C371.142 207.292 367.94 209.988 365.298 213.65L347.306 202.054C351.372 195.95 357.064 191.119 364.383 187.559C371.701 183.998 380.138 182.218 389.693 182.218C397.621 182.218 404.533 183.54 410.429 186.185C416.426 188.728 421.051 192.34 424.304 197.018C427.658 201.697 429.335 207.292 429.335 213.802C429.335 217.261 428.878 220.719 427.963 224.178C427.15 227.534 425.422 231.095 422.779 234.858C420.238 238.622 416.477 242.843 411.496 247.522L377.343 279.717L372.616 270.715H432.842V290.855H352.185ZM442.119 290.855V274.834L483.284 235.926C486.538 232.976 488.926 230.332 490.45 227.992C491.975 225.652 492.995 223.516 493.5 221.584C494.11 219.651 494.414 217.871 494.414 216.244C494.414 211.971 492.942 208.716 489.993 206.478C487.148 204.139 482.932 202.969 477.338 202.969C472.867 202.969 468.699 203.834 464.837 205.563C461.076 207.292 457.874 209.988 455.231 213.65L437.24 202.054C441.306 195.95 446.998 191.119 454.317 187.559C461.635 183.998 470.072 182.218 479.625 182.218C487.553 182.218 494.467 183.54 500.361 186.185C506.36 188.728 510.986 192.34 514.236 197.018C517.59 201.697 519.267 207.292 519.267 213.802C519.267 217.261 518.81 220.719 517.895 224.178C517.085 227.534 515.355 231.095 512.711 234.858C510.171 238.622 506.412 242.843 501.428 247.522L467.277 279.717L462.55 270.715H522.774V290.855H442.119Z" fill="white"/>
</g>
<defs>
<linearGradient id="paint0_linear_127_653" x1="7.18903" y1="129.543" x2="89.4966" y2="158.599" gradientUnits="userSpaceOnUse">
<stop offset="0.02" stop-color="#48CAE4"/>
<stop offset="0.61" stop-color="#2A3C80"/>
</linearGradient>
<linearGradient id="paint1_linear_127_653" x1="63.7365" y1="192.218" x2="117.643" y2="211.906" gradientUnits="userSpaceOnUse">
<stop stop-color="#54C3F0"/>
<stop offset="0.02" stop-color="#52BCEA"/>
<stop offset="0.16" stop-color="#4083BC"/>
<stop offset="0.28" stop-color="#34599A"/>
<stop offset="0.37" stop-color="#2C3F85"/>
<stop offset="0.43" stop-color="#29367D"/>
</linearGradient>
<clipPath id="clip0_127_653">
<rect width="648" height="329" fill="white"/>
</clipPath>
</defs>
</svg>
